<?xml version="1.0" encoding="UTF-8" standalone="no"?>
<!-- Created with Inkscape (http://www.inkscape.org/) -->

<svg
   xmlns:dc="http://purl.org/dc/elements/1.1/"
   xmlns:cc="http://creativecommons.org/ns#"
   xmlns:rdf="http://www.w3.org/1999/02/22-rdf-syntax-ns#"
   xmlns:svg="http://www.w3.org/2000/svg"
   xmlns="http://www.w3.org/2000/svg"
   xmlns:sodipodi="http://sodipodi.sourceforge.net/DTD/sodipodi-0.dtd"
   xmlns:inkscape="http://www.inkscape.org/namespaces/inkscape"
   width="384"
   height="640"
   viewBox="0 0 101.6 169.33333"
   version="1.1"
   id="svg8"
   inkscape:version="0.92.2 (5c3e80d, 2017-08-06)"
   sodipodi:docname="screen1.svg"
   inkscape:export-filename="C:\Users\m.favre\Documents\Perso\python\template.png"
   inkscape:export-xdpi="96"
   inkscape:export-ydpi="96">
  <defs
     id="defs2" />
  <sodipodi:namedview
     id="base"
     pagecolor="#ffffff"
     bordercolor="#666666"
     borderopacity="1.0"
     inkscape:pageopacity="1"
     inkscape:pageshadow="2"
     inkscape:zoom="1.979899"
     inkscape:cx="271.77578"
     inkscape:cy="408.11909"
     inkscape:document-units="mm"
     inkscape:current-layer="layer1"
     showgrid="true"
     units="px"
     inkscape:window-width="1920"
     inkscape:window-height="1017"
     inkscape:window-x="-8"
     inkscape:window-y="-8"
     inkscape:window-maximized="1"
     inkscape:pagecheckerboard="true">
    <inkscape:grid
       type="xygrid"
       id="grid3806" />
  </sodipodi:namedview>
  <metadata
     id="metadata5">
    <rdf:RDF>
      <cc:Work
         rdf:about="">
        <dc:format>image/svg+xml</dc:format>
        <dc:type
           rdf:resource="http://purl.org/dc/dcmitype/StillImage" />
        <dc:title></dc:title>
      </cc:Work>
    </rdf:RDF>
  </metadata>
  <g
     inkscape:label="Layer 1"
     inkscape:groupmode="layer"
     id="layer1"
     transform="translate(0,-127.66665)"
     style="opacity:1">
    <path
       id="path3731"
       d="m 9.492479,144.01437 c 0,-0.49398 0.116234,-0.95307 0.3428684,-1.3831 0.2266426,-0.43004 0.5462626,-0.78454 0.9588686,-1.06928 v -5.76484 c 0,-0.46491 0.156911,-0.86007 0.476528,-1.17969 0.319623,-0.31962 0.714791,-0.48815 1.179698,-0.48815 0.470718,0 0.865887,0.16275 1.18551,0.48233 0.319623,0.32544 0.482339,0.7148 0.482339,1.17971 v 5.76482 c 0.412604,0.28476 0.726415,0.64506 0.953058,1.0693 0.226641,0.42421 0.337056,0.88913 0.337056,1.38307 0,0.53465 -0.133651,1.03442 -0.395168,1.48772 -0.261511,0.45327 -0.621814,0.81357 -1.075097,1.07509 -0.453283,0.26151 -0.947244,0.39516 -1.487698,0.39516 -0.534642,0 -1.028603,-0.13354 -1.481886,-0.39516 -0.453283,-0.26152 -0.813586,-0.62182 -1.0809056,-1.07509 -0.2673234,-0.4533 -0.3951714,-0.94725 -0.3951714,-1.48189 z m 1.022794,0 c 0,0.54044 0.191768,1.00536 0.569508,1.38889 0.377735,0.38356 0.83683,0.57533 1.371473,0.57533 0.540452,0 1.005358,-0.19175 1.394717,-0.58113 0.389359,-0.38935 0.586943,-0.84845 0.586943,-1.37727 0,-0.36032 -0.09297,-0.69736 -0.278943,-1.00536 -0.18597,-0.30801 -0.44166,-0.54627 -0.767095,-0.7148 l -0.162709,-0.0813 c -0.05812,-0.0233 -0.08718,-0.0813 -0.08718,-0.16846 v -6.253 c 0,-0.18603 -0.06391,-0.34285 -0.197588,-0.47071 -0.133652,-0.12212 -0.296377,-0.18603 -0.493963,-0.18603 -0.18597,0 -0.34868,0.0639 -0.48234,0.18603 -0.133651,0.12212 -0.197588,0.27895 -0.197588,0.47071 v 6.24138 c 0,0.0872 -0.02906,0.14518 -0.08135,0.16846 l -0.156911,0.0813 c -0.319623,0.16846 -0.569511,0.40679 -0.74966,0.71477 -0.180149,0.30801 -0.267322,0.63927 -0.26732,1.01119 z m 0.453283,0 c 0,0.41259 0.139472,0.76709 0.424224,1.05765 0.284756,0.29056 0.621814,0.43586 1.022794,0.43586 0.400982,0 0.74385,-0.1454 1.040227,-0.43586 0.296378,-0.29056 0.441662,-0.64506 0.441662,-1.05183 0,-0.36612 -0.127853,-0.69156 -0.377738,-0.97051 -0.249885,-0.27894 -0.557887,-0.44747 -0.918188,-0.49395 v -4.27715 c 0,-0.0349 -0.01735,-0.0756 -0.05812,-0.11048 -0.04068,-0.0406 -0.08135,-0.0582 -0.127853,-0.0582 -0.0523,0 -0.09297,0.0176 -0.122032,0.0466 -0.02906,0.0349 -0.0465,0.0696 -0.0465,0.12212 v 4.26551 c -0.354491,0.0523 -0.656679,0.21503 -0.906566,0.49397 -0.249887,0.28477 -0.371926,0.60439 -0.371924,0.97631 z"
       inkscape:connector-curvature="0"
       style="stroke-width:0.58113223" />
    <path
       id="path3741"
       d="m 9.2241043,168.59191 c 0,-0.51579 0.121367,-0.99516 0.358011,-1.44418 0.236652,-0.44903 0.5703887,-0.81919 1.0012177,-1.1165 v -6.01945 c 0,-0.48545 0.163842,-0.89806 0.497574,-1.23179 0.33374,-0.33374 0.746361,-0.50971 1.231801,-0.50971 0.491507,0 0.904129,0.16994 1.237868,0.50363 0.33374,0.33981 0.503643,0.74637 0.503643,1.23181 v 6.01943 c 0.430826,0.29734 0.758497,0.67355 0.99515,1.11652 0.23665,0.44295 0.351942,0.9284 0.351942,1.44416 0,0.55827 -0.139554,1.08011 -0.412621,1.55342 -0.273061,0.47329 -0.649276,0.84951 -1.122579,1.12258 -0.473303,0.27306 -0.98908,0.41261 -1.553403,0.41261 -0.558256,0 -1.074032,-0.13944 -1.547335,-0.41261 -0.473303,-0.27307 -0.8495187,-0.64929 -1.1286447,-1.12258 -0.279129,-0.47331 -0.412624,-0.98908 -0.412624,-1.54734 z m 1.0679657,0 c 0,0.56432 0.200238,1.04976 0.594661,1.45024 0.394419,0.4005 0.87379,0.60074 1.432045,0.60074 0.564321,0 1.049761,-0.20022 1.456316,-0.60679 0.406556,-0.40656 0.612866,-0.88593 0.612866,-1.43811 0,-0.37623 -0.09708,-0.72816 -0.291263,-1.04976 -0.194183,-0.32161 -0.461166,-0.5704 -0.800974,-0.74637 l -0.169896,-0.0849 c -0.06068,-0.0243 -0.09103,-0.0848 -0.09103,-0.1759 v -6.52916 c 0,-0.19425 -0.06674,-0.358 -0.206316,-0.4915 -0.139554,-0.12752 -0.309466,-0.19425 -0.515779,-0.19425 -0.194183,0 -0.364079,0.0667 -0.503642,0.19425 -0.139554,0.12751 -0.206315,0.29126 -0.206315,0.4915 v 6.51703 c 0,0.091 -0.03034,0.15159 -0.08495,0.1759 l -0.163842,0.0849 c -0.333739,0.1759 -0.594663,0.42476 -0.782768,0.74634 -0.188106,0.32161 -0.279129,0.6675 -0.279127,1.05584 z"
       inkscape:connector-curvature="0"
       style="stroke-width:0.60679841" />
    <path
       id="path3771"
       d="m 66.898622,139.3538 c 0,-0.47384 0.170601,-0.88134 0.502274,-1.21301 0.341167,-0.34135 0.739196,-0.50228 1.213041,-0.50228 0.464368,0 0.871874,0.1705 1.203564,0.50228 0.331676,0.34099 0.502274,0.73917 0.502274,1.21301 0,0.47388 -0.170601,0.88138 -0.502274,1.21305 -0.331675,0.34099 -0.739196,0.50228 -1.203564,0.50228 -0.473845,0 -0.881351,-0.17049 -1.213041,-0.50228 -0.331676,-0.33167 -0.502274,-0.73917 -0.502274,-1.21305 z m 0.833964,0 c 0,0.24643 0.08528,0.45489 0.255885,0.63498 0.180057,0.18017 0.388554,0.26542 0.634951,0.26542 0.246393,0 0.45489,-0.0853 0.634951,-0.26542 0.180059,-0.18016 0.265341,-0.38855 0.265341,-0.63498 0,-0.24642 -0.08528,-0.45489 -0.265341,-0.63495 -0.180057,-0.18016 -0.388551,-0.26541 -0.634951,-0.26541 -0.246393,0 -0.45489,0.0853 -0.634951,0.26541 -0.170602,0.1705 -0.255885,0.38856 -0.255885,0.63495 z m 3.686509,4.18879 c 0,0.72972 0.199005,1.37416 0.606519,1.94277 0.208497,0.29371 0.502273,0.53072 0.881347,0.71078 0.3696,0.17049 0.796058,0.26541 1.269903,0.26541 1.383626,0 2.255496,-0.53072 2.606141,-1.58262 0.03789,-0.13253 0.01899,-0.26541 -0.05688,-0.38856 -0.07583,-0.12321 -0.180057,-0.18947 -0.312728,-0.21813 -0.13267,-0.038 -0.26534,-0.0179 -0.379074,0.0663 -0.113722,0.0759 -0.18955,0.18016 -0.217953,0.32236 0,0.0108 0,0.0179 -0.0097,0.0473 l -0.01899,0.0663 c -0.10423,0.18017 -0.246393,0.32237 -0.426461,0.42645 -0.29378,0.18017 -0.682336,0.26541 -1.165654,0.26541 -0.293781,0 -0.559135,-0.0473 -0.786581,-0.15151 -0.379077,-0.16118 -0.644429,-0.4454 -0.805535,-0.84344 -0.10423,-0.25574 -0.16111,-0.56861 -0.16111,-0.91923 v -3.05157 c 0,-0.14219 0.0097,-0.28439 0.02829,-0.42645 0.03789,-0.36011 0.180057,-0.69183 0.426457,-0.9856 0.274833,-0.33168 0.710768,-0.49279 1.307809,-0.49279 0.492797,0 0.881352,0.0853 1.165658,0.25574 0.18955,0.1139 0.331676,0.25574 0.426458,0.42645 0.0093,0.0179 0.0093,0.0473 0.01899,0.0759 0.0093,0.0286 0.0093,0.0473 0.0093,0.057 0.03789,0.13252 0.113722,0.22744 0.217953,0.28439 0.113723,0.0663 0.236937,0.0759 0.379074,0.0473 0.132671,-0.0286 0.236937,-0.10423 0.312728,-0.21778 0.07583,-0.1139 0.09477,-0.23711 0.05688,-0.37906 v -0.0108 l -0.07583,-0.21777 c -0.04739,-0.10423 -0.132671,-0.24643 -0.265341,-0.40751 -0.123214,-0.17049 -0.274832,-0.30337 -0.426458,-0.41699 -0.199005,-0.14219 -0.45489,-0.25574 -0.777102,-0.36011 -0.32222,-0.0949 -0.672861,-0.1422 -1.051936,-0.1422 -0.483319,0 -0.900302,0.0852 -1.279376,0.25574 -0.3696,0.17049 -0.663384,0.39801 -0.862396,0.69179 -0.407507,0.55916 -0.615997,1.21306 -0.615997,1.96172 v 3.04207 z"
       inkscape:connector-curvature="0"
       style="stroke-width:0.94768775" />
    <path
       id="path3781"
       d="m 75.7555,189.61359 c 0,-0.26194 0.05027,-0.51329 0.153458,-0.75406 0.103188,-0.24077 0.240771,-0.4445 0.415396,-0.61648 0.174625,-0.17198 0.381,-0.30956 0.619125,-0.41275 0.238125,-0.10319 0.489479,-0.15346 0.751417,-0.15346 0.261937,0 0.513291,0.0503 0.754062,0.15346 0.238125,0.10319 0.4445,0.24077 0.616479,0.41275 0.17198,0.17198 0.309563,0.37835 0.41275,0.61648 0.103188,0.23812 0.153459,0.48948 0.153459,0.75406 0,0.42862 -0.127,0.80962 -0.381,1.14829 -0.254,0.33602 -0.582084,0.56621 -0.981604,0.69056 v 0.87048 h -1.121834 v -0.85989 c -0.407458,-0.11907 -0.743479,-0.34925 -1.002771,-0.69057 -0.259291,-0.34131 -0.388937,-0.7276 -0.388937,-1.15887 z m 0.425979,0 c 0,0.4101 0.148167,0.762 0.447146,1.05569 0.293687,0.29633 0.648229,0.4445 1.063625,0.4445 0.272521,0 0.526521,-0.0661 0.756708,-0.20109 0.232834,-0.13493 0.415396,-0.3175 0.552979,-0.54768 0.134938,-0.23019 0.20373,-0.48155 0.20373,-0.75407 0,-0.20373 -0.03969,-0.39687 -0.119063,-0.58473 -0.07937,-0.18785 -0.187854,-0.3466 -0.322792,-0.48154 -0.134937,-0.13493 -0.296333,-0.24341 -0.484187,-0.32279 -0.187854,-0.0794 -0.381,-0.11906 -0.584729,-0.11906 -0.203729,0 -0.396875,0.0397 -0.584729,0.11906 -0.187855,0.0794 -0.346605,0.18786 -0.481542,0.32279 -0.134938,0.13494 -0.243417,0.29634 -0.322792,0.48154 -0.08467,0.19051 -0.124354,0.38365 -0.124354,0.58738 z m 0.153458,0.0952 v -0.1905 h 0.574146 v 0.1905 z m 0.288396,-0.93663 0.137584,-0.13758 0.402166,0.40217 -0.137583,0.14023 z m 0.669396,1.3044 c 0,-0.11112 0.03969,-0.20637 0.116417,-0.2884 0.07673,-0.082 0.171979,-0.12435 0.280458,-0.127 l 0.722313,-1.18797 0.174625,0.0926 -0.534459,1.27794 c 0.04763,0.0661 0.06879,0.14287 0.06879,0.23283 0,0.11642 -0.03969,0.21431 -0.121708,0.29369 -0.08202,0.0794 -0.179917,0.11906 -0.296333,0.11906 -0.113771,0 -0.211667,-0.0397 -0.291042,-0.11906 -0.07937,-0.0794 -0.119062,-0.17727 -0.119063,-0.29369 z m 0.346604,-1.2356 v -0.5715 h 0.182563 v 0.57414 h -0.182563 z m 0.777875,0.86518 v -0.19579 h 0.574146 v 0.19579 z"
       inkscape:connector-curvature="0"
       style="stroke-width:0.26458332" />
    <path
       id="path3771-5"
       d="m 66.898622,163.1663 c 0,-0.47384 0.170601,-0.88134 0.502274,-1.21301 0.341167,-0.34135 0.739196,-0.50228 1.213041,-0.50228 0.464368,0 0.871874,0.1705 1.203564,0.50228 0.331676,0.34099 0.502274,0.73917 0.502274,1.21301 0,0.47388 -0.170601,0.88138 -0.502274,1.21305 -0.331675,0.34099 -0.739196,0.50228 -1.203564,0.50228 -0.473845,0 -0.881351,-0.17049 -1.213041,-0.50228 -0.331676,-0.33167 -0.502274,-0.73917 -0.502274,-1.21305 z m 0.833964,0 c 0,0.24643 0.08528,0.45489 0.255885,0.63498 0.180057,0.18017 0.388554,0.26542 0.634951,0.26542 0.246393,0 0.45489,-0.0853 0.634951,-0.26542 0.180059,-0.18016 0.265341,-0.38855 0.265341,-0.63498 0,-0.24642 -0.08528,-0.45489 -0.265341,-0.63495 -0.180057,-0.18016 -0.388551,-0.26541 -0.634951,-0.26541 -0.246393,0 -0.45489,0.0853 -0.634951,0.26541 -0.170602,0.1705 -0.255885,0.38856 -0.255885,0.63495 z m 3.686509,4.18879 c 0,0.72972 0.199005,1.37416 0.606519,1.94277 0.208497,0.29371 0.502273,0.53072 0.881347,0.71078 0.3696,0.17049 0.796058,0.26541 1.269903,0.26541 1.383626,0 2.255496,-0.53072 2.606141,-1.58262 0.03789,-0.13253 0.01899,-0.26541 -0.05688,-0.38856 -0.07583,-0.12321 -0.180058,-0.18947 -0.312728,-0.21813 -0.13267,-0.038 -0.26534,-0.0179 -0.379074,0.0663 -0.113722,0.0759 -0.18955,0.18016 -0.217953,0.32236 0,0.0108 0,0.0179 -0.0097,0.0473 l -0.01899,0.0663 c -0.10423,0.18017 -0.246393,0.32237 -0.426461,0.42645 -0.29378,0.18017 -0.682336,0.26541 -1.165654,0.26541 -0.293781,0 -0.559135,-0.0473 -0.786581,-0.15151 -0.379077,-0.16118 -0.644429,-0.4454 -0.805535,-0.84344 -0.10423,-0.25574 -0.16111,-0.56861 -0.16111,-0.91923 v -3.05157 c 0,-0.14219 0.0097,-0.28439 0.02829,-0.42645 0.03789,-0.36011 0.180057,-0.69183 0.426457,-0.9856 0.274833,-0.33168 0.710768,-0.49279 1.307809,-0.49279 0.492797,0 0.881352,0.0853 1.165658,0.25574 0.18955,0.1139 0.331676,0.25574 0.426458,0.42645 0.0093,0.0179 0.0093,0.0473 0.01899,0.0759 0.0093,0.0286 0.0093,0.0473 0.0093,0.057 0.03789,0.13252 0.113722,0.22744 0.217953,0.28439 0.113723,0.0663 0.236937,0.0759 0.379074,0.0473 0.132671,-0.0286 0.236937,-0.10423 0.312728,-0.21778 0.07583,-0.1139 0.09477,-0.23711 0.05688,-0.37906 v -0.0108 l -0.07583,-0.21777 c -0.04739,-0.10423 -0.132671,-0.24643 -0.265341,-0.40751 -0.123214,-0.17049 -0.274832,-0.30337 -0.426458,-0.41699 -0.199005,-0.14219 -0.45489,-0.25574 -0.777102,-0.36011 -0.32222,-0.0949 -0.672861,-0.1422 -1.051936,-0.1422 -0.483319,0 -0.900303,0.0852 -1.279376,0.25574 -0.369601,0.17049 -0.663384,0.39801 -0.862396,0.69179 -0.407508,0.55916 -0.615997,1.21306 -0.615997,1.96172 v 3.04207 z"
       inkscape:connector-curvature="0"
       style="opacity:1;stroke-width:0.94768775"
       inkscape:transform-center-x="-8.8824405"
       inkscape:transform-center-y="0.56696429" />
    <path
       id="path3812"
       d="m 27.70452,190.68247 c 0,-0.23284 0.0635,-0.50007 0.1905,-0.80169 0.127,-0.30163 0.291042,-0.59531 0.492125,-0.87577 0.41275,-0.54504 0.772583,-0.95779 1.074208,-1.23561 l 0.198438,-0.1905 c 0.06615,0.0688 0.140229,0.1323 0.219604,0.1905 0.108479,0.11113 0.275167,0.29369 0.497417,0.55298 0.22225,0.2593 0.415396,0.48948 0.574146,0.70115 0.187854,0.26723 0.34925,0.55562 0.478895,0.8599 0.129646,0.30427 0.195792,0.5715 0.195792,0.80168 0,0.26459 -0.05027,0.51594 -0.153458,0.75671 -0.103188,0.24077 -0.240771,0.44979 -0.415396,0.62442 -0.174625,0.17462 -0.383646,0.31485 -0.627063,0.41804 -0.243416,0.10319 -0.500062,0.1561 -0.769937,0.1561 -0.264583,0 -0.515938,-0.0503 -0.756708,-0.15081 -0.240771,-0.10054 -0.449792,-0.23548 -0.624417,-0.4101 -0.174625,-0.17198 -0.314854,-0.381 -0.418042,-0.62177 -0.103187,-0.24077 -0.156104,-0.50007 -0.156104,-0.77523 z m 0.597958,-0.77523 c 0,0.2196 0.04498,0.39423 0.137584,0.52652 0.0926,0.12964 0.232833,0.19579 0.420687,0.19579 0.1905,0 0.330729,-0.0662 0.425979,-0.19579 0.0926,-0.12965 0.14023,-0.30427 0.142875,-0.52652 -0.0026,-0.22225 -0.05027,-0.39688 -0.142875,-0.52917 -0.0926,-0.12964 -0.235479,-0.19579 -0.425979,-0.19579 -0.187854,0 -0.328083,0.0661 -0.420687,0.19579 -0.0926,0.13229 -0.137584,0.30692 -0.137584,0.52917 z m 0.415396,0 c 0,-0.0397 0,-0.0714 0,-0.0926 0,-0.0212 0.0027,-0.0503 0.0053,-0.0873 0.0027,-0.037 0.0053,-0.0661 0.01323,-0.0847 0.0079,-0.0185 0.01323,-0.0423 0.02381,-0.0635 0.01058,-0.0212 0.02381,-0.0397 0.03969,-0.0476 0.01852,-0.0106 0.03704,-0.0159 0.06085,-0.0159 0.03704,0 0.06615,0.0106 0.08731,0.0317 0.02117,0.0212 0.03704,0.0556 0.04498,0.10055 0.0079,0.0476 0.01323,0.0847 0.01588,0.11906 0.0026,0.0344 0.0026,0.0794 0.0026,0.13758 0,0.0609 0,0.10584 -0.0026,0.13759 -0.0027,0.0318 -0.0079,0.0714 -0.01588,0.11906 -0.0079,0.045 -0.02381,0.0794 -0.04498,0.10054 -0.02117,0.0212 -0.05027,0.0317 -0.08731,0.0317 -0.02381,0 -0.04233,-0.005 -0.06085,-0.0159 -0.01852,-0.0106 -0.03175,-0.0265 -0.03969,-0.0476 -0.01058,-0.0212 -0.01852,-0.045 -0.02381,-0.0635 -0.0053,-0.0212 -0.01058,-0.0503 -0.01323,-0.0847 -0.0027,-0.037 -0.0053,-0.0661 -0.0053,-0.0847 0,-0.0185 0,-0.0503 0,-0.09 z m 0.156104,2.05052 h 0.34925 l 1.320271,-2.84163 h -0.357187 z m 1.137709,-0.79111 c 0.0027,0.22225 0.05292,0.39688 0.145521,0.52917 0.0926,0.12965 0.235479,0.19579 0.423333,0.19579 0.1905,0 0.330729,-0.0661 0.423333,-0.19579 0.0926,-0.12964 0.137584,-0.30692 0.140229,-0.52917 -0.0026,-0.22225 -0.04762,-0.39687 -0.140229,-0.52652 -0.0926,-0.12964 -0.232833,-0.19579 -0.423333,-0.19579 -0.187854,0 -0.330729,0.0661 -0.423333,0.19579 -0.09525,0.12965 -0.142875,0.30427 -0.145521,0.52652 z m 0.415396,0 c 0,-0.0608 0,-0.10583 0.0027,-0.13758 0.0026,-0.0318 0.0079,-0.0714 0.01588,-0.11906 0.0079,-0.0476 0.02381,-0.0794 0.04498,-0.10054 0.02117,-0.0212 0.05027,-0.0317 0.08731,-0.0317 0.02381,0 0.04498,0.005 0.0635,0.0159 0.01852,0.0106 0.03175,0.0265 0.04233,0.0503 0.01058,0.0238 0.01852,0.045 0.02646,0.0635 0.0079,0.0185 0.01058,0.0476 0.01323,0.0847 l 0.0026,0.0847 v 0.0899 c 0,0.0423 0,0.0741 0,0.0926 l -0.0026,0.0847 -0.01323,0.0847 -0.02646,0.0635 -0.04233,0.0503 -0.0635,0.0159 c -0.03704,0 -0.06615,-0.0106 -0.08731,-0.0317 -0.02117,-0.0212 -0.03704,-0.0556 -0.04498,-0.10054 -0.0079,-0.0476 -0.01323,-0.0873 -0.01588,-0.11907 -0.0027,-0.0317 -0.0027,-0.0794 -0.0027,-0.14023 z"
       inkscape:connector-curvature="0"
       style="stroke-width:0.26458332" />
  </g>
</svg>
